<svg xmlns="http://www.w3.org/2000/svg" width="121" height="37" fill="none" viewBox="0 0 121 37">
    <path fill="#329FD1" d="M30.059 35h-2.832V24.434h2.832V35zM27.06 21.7c0-.424.14-.772.42-1.046.286-.273.673-.41 1.162-.41.481 0 .866.137 1.152.41.286.274.43.622.43 1.045 0 .43-.147.781-.44 1.055-.286.273-.667.41-1.142.41-.476 0-.86-.137-1.153-.41-.286-.274-.43-.625-.43-1.055zm9.345-.919l3.653 10.313L43.69 20.78h3.848V35H44.6v-3.887l.294-6.709L41.055 35h-2.012l-3.828-10.586.293 6.7V35h-2.93V20.781h3.828zM56.036 35c-.131-.254-.226-.57-.284-.947-.684.762-1.572 1.142-2.666 1.142-1.035 0-1.895-.3-2.578-.898-.677-.6-1.016-1.354-1.016-2.266 0-1.12.414-1.979 1.24-2.578.834-.599 2.035-.902 3.604-.908h1.299v-.606c0-.488-.127-.878-.381-1.171-.247-.293-.641-.44-1.182-.44-.475 0-.85.114-1.123.342-.267.228-.4.54-.4.937h-2.822c0-.612.188-1.178.566-1.699.378-.52.911-.928 1.602-1.22.69-.3 1.464-.45 2.324-.45 1.302 0 2.334.33 3.096.987.768.65 1.152 1.569 1.152 2.753v4.58c.006 1.003.146 1.762.42 2.276V35h-2.852zM53.7 33.037c.417 0 .801-.091 1.152-.273.352-.19.612-.44.782-.752v-1.817H54.58c-1.413 0-2.165.489-2.256 1.465l-.01.166c0 .352.124.641.371.87.248.227.587.341 1.016.341zm10.772-2.275l-1.016 1.015V35h-2.822V20h2.822v8.31l.547-.703 2.705-3.173h3.389l-3.819 4.404L70.43 35h-3.242l-2.714-4.238zm11.513 4.433c-1.55 0-2.812-.475-3.789-1.425-.97-.951-1.455-2.217-1.455-3.8v-.273c0-1.06.205-2.008.615-2.841.41-.84.99-1.485 1.739-1.934.755-.456 1.614-.684 2.578-.684 1.445 0 2.581.456 3.408 1.367.833.912 1.25 2.204 1.25 3.877v1.153h-6.728c.09.69.364 1.243.82 1.66.462.417 1.045.625 1.748.625 1.087 0 1.937-.394 2.549-1.182l1.386 1.553c-.423.599-.996 1.068-1.718 1.406-.723.332-1.524.498-2.403.498zm-.322-8.672c-.56 0-1.016.19-1.367.567-.345.377-.566.918-.664 1.62h3.926v-.224c-.013-.625-.183-1.106-.508-1.445-.326-.345-.788-.518-1.387-.518zm12.217.557c-.384-.052-.723-.078-1.016-.078-1.067 0-1.767.361-2.1 1.084V35h-2.822V24.434h2.666l.079 1.26c.566-.97 1.35-1.456 2.353-1.456.313 0 .606.043.879.127l-.04 2.715zM89.434 35V20.781h4.98c1.725 0 3.034.332 3.926.996.892.658 1.338 1.625 1.338 2.9 0 .697-.18 1.313-.537 1.846-.358.528-.857.915-1.495 1.163.73.182 1.303.55 1.72 1.103.422.553.634 1.23.634 2.031 0 1.367-.436 2.403-1.309 3.106-.872.703-2.115 1.061-3.73 1.074h-5.527zm2.93-6.191v3.838h2.509c.69 0 1.227-.163 1.611-.489.391-.332.586-.788.586-1.367 0-1.302-.673-1.963-2.021-1.982h-2.686zm0-2.07h2.167c1.478-.027 2.217-.616 2.217-1.768 0-.645-.189-1.107-.566-1.387-.371-.287-.96-.43-1.768-.43h-2.05v3.584zm9.218 2.88c0-1.048.202-1.982.606-2.803.403-.82.983-1.455 1.738-1.904.762-.45 1.644-.674 2.646-.674 1.426 0 2.588.436 3.487 1.309.905.872 1.409 2.057 1.513 3.555l.02.722c0 1.621-.453 2.923-1.358 3.906-.905.977-2.119 1.465-3.642 1.465-1.524 0-2.741-.488-3.653-1.465-.904-.976-1.357-2.304-1.357-3.984v-.127zm2.822.205c0 1.003.189 1.771.567 2.305.377.527.918.79 1.621.79.683 0 1.217-.26 1.601-.78.384-.528.577-1.368.577-2.52 0-.983-.193-1.745-.577-2.285-.384-.54-.924-.81-1.621-.81-.69 0-1.224.27-1.601.81-.378.534-.567 1.364-.567 2.49zm12.305-7.988v2.598h1.807v2.07h-1.807v5.273c0 .391.075.67.225.84.149.17.436.254.859.254.312 0 .589-.023.83-.068v2.138c-.553.17-1.123.254-1.709.254-1.979 0-2.988-.999-3.027-2.998v-5.693h-1.543v-2.07h1.543v-2.598h2.822zM17.976 25c-.222 0-.442-.073-.62-.223l-6.495-5.45H2.34c-1.282 0-2.339-1.1-2.339-2.443V2.402C0 1.066 1.057 0 2.34 0h20.313C23.95 0 25 1.066 25 2.402v14.482c0 1.342-1.05 2.443-2.347 2.443h-3.71v4.676c0 .386-.214.737-.555.902-.133.064-.27.095-.412.095zM2.339 1.992c-.206 0-.374.173-.374.41v14.482c0 .239.172.451.374.451h8.872c.226 0 .442.075.617.222l5.164 4.335v-3.57c0-.551.444-.986.984-.986h4.677c.209 0 .397-.221.397-.451V2.401c0-.229-.184-.41-.397-.41H2.34z"/>
</svg>
